<svg version="1.1" id="Layer_1" xmlns="http://www.w3.org/2000/svg" xmlns:xlink="http://www.w3.org/1999/xlink" x="0px" y="0px"
	 width="100%" viewBox="0 0 1024 1024" enable-background="new 0 0 1024 1024" xml:space="preserve">
<path fill="#000000" opacity="1.000000" stroke="none" 
	d="
M70.025360,571.760986 
	C89.517937,571.787170 108.519234,571.539856 127.508171,571.916077 
	C146.989349,572.302063 166.011444,575.465759 183.477631,584.698669 
	C210.911102,599.200562 225.707886,622.681580 230.146454,652.837463 
	C233.407623,674.994263 232.446426,697.083252 224.841705,718.374756 
	C213.493317,750.147827 189.981506,768.202637 157.949951,776.163147 
	C146.930359,778.901611 135.702438,780.270996 124.339317,780.346863 
	C103.847420,780.483704 83.354980,780.545654 62.863346,780.710571 
	C59.957951,780.733948 58.493511,779.754639 58.643116,776.671265 
	C58.772167,774.011658 58.661350,771.340515 58.661316,768.674500 
	C58.660496,706.687500 58.640766,644.700439 58.676544,582.713440 
	C58.683697,570.320496 57.182899,571.857605 70.025360,571.760986 
M164.175827,730.680969 
	C171.529373,724.791687 176.579193,717.244751 179.721527,708.455627 
	C185.994659,690.909729 186.200073,672.805237 183.164627,654.763672 
	C178.934494,629.621338 165.577057,615.617615 142.418976,610.724915 
	C130.562195,608.219971 118.528778,609.544189 106.568771,609.371277 
	C103.051727,609.320374 103.386627,612.085449 103.385857,614.409180 
	C103.372276,655.543945 103.408936,696.678833 103.307770,737.813354 
	C103.297882,741.833313 104.923058,743.061951 108.679070,742.948669 
	C116.001312,742.728027 123.353844,743.104919 130.653061,742.620300 
	C142.633514,741.825012 153.915085,738.644653 164.175827,730.680969 
z"/>
<path fill="#000000" opacity="1.000000" stroke="none" 
	d="
M717.394531,438.743225 
	C686.683105,425.760132 660.279175,407.311890 637.804932,383.169037 
	C634.887207,380.034668 634.939331,378.041138 637.728821,374.888489 
	C671.980957,336.176544 714.130432,310.895905 765.473083,303.838257 
	C840.875610,293.473297 903.429993,319.301422 954.243225,375.162872 
	C956.000549,377.094849 956.405273,378.467712 954.438965,380.611267 
	C927.584229,409.887024 896.066284,432.030182 857.916809,444.134552 
	C810.561279,459.159912 763.839600,457.451843 717.394531,438.743225 
M735.908813,422.547974 
	C741.194214,424.031036 746.458374,425.595886 751.771118,426.973694 
	C756.921448,428.309479 762.093018,429.623260 768.111328,430.062653 
	C748.008118,417.965729 737.088318,400.953674 736.797974,378.117859 
	C736.507019,355.227905 747.521118,338.178619 766.469177,325.768280 
	C726.642883,332.199738 692.582092,349.525024 663.209412,377.557709 
	C684.132202,398.275269 708.142822,412.681213 735.908813,422.547974 
M845.233582,330.365021 
	C838.429565,328.524506 831.652466,326.552521 824.012146,325.806915 
	C843.542480,338.007904 854.236938,354.713470 854.354736,377.519562 
	C854.473022,400.410797 843.652405,417.172302 823.563538,430.019287 
	C861.799133,423.267609 893.850159,407.396851 921.497681,382.478638 
	C926.587891,377.890961 926.722900,377.802490 921.539612,373.025604 
	C899.721802,352.918701 874.388855,339.031982 845.233582,330.365021 
M759.462646,385.966980 
	C766.203735,407.523071 783.592468,418.200165 804.538147,413.644257 
	C821.874207,409.873474 835.069214,391.059235 832.500305,373.510071 
	C829.418152,352.455170 813.242188,340.294647 795.243408,340.687561 
	C769.332031,341.253235 754.920654,364.412903 759.462646,385.966980 
z"/>
<path fill="#000000" opacity="1.000000" stroke="none" 
	d="
M272.113098,651.243286 
	C289.292480,623.459900 315.328735,615.996887 345.493988,618.206726 
	C359.889526,619.261353 373.243866,623.741699 384.501831,633.152405 
	C399.045044,645.309326 405.549072,661.557556 407.181091,679.932373 
	C407.945404,688.537598 407.601501,697.235657 408.044525,705.877075 
	C408.289062,710.646606 406.501465,712.274353 401.707520,712.248352 
	C371.890381,712.086670 342.071991,712.159363 312.253998,712.163879 
	C305.529144,712.164856 305.529144,712.182190 306.314575,718.756104 
	C308.404358,736.247375 322.417572,748.989990 340.018433,749.775818 
	C358.491699,750.600769 376.114075,747.249512 393.003326,739.814697 
	C394.219971,739.279114 395.464050,738.802368 396.712738,738.345764 
	C397.001038,738.240295 397.360779,738.330200 397.719818,738.330200 
	C399.498108,739.642395 399.054626,741.599487 399.060242,743.367310 
	C399.085114,751.196411 398.880768,759.030029 399.093262,766.852966 
	C399.194733,770.588135 397.773010,772.625916 394.394653,774.067261 
	C382.634521,779.084412 370.370667,781.849548 357.667816,782.816345 
	C342.316925,783.984741 327.042847,783.862610 312.154297,779.282288 
	C286.260498,771.316345 269.634979,754.243408 263.668549,727.793030 
	C257.758118,701.591064 259.269440,675.895813 272.113098,651.243286 
M362.968323,681.812378 
	C366.256683,681.534119 365.760773,679.088379 365.663788,676.973206 
	C364.880890,659.897461 351.622589,648.890503 333.349243,650.112671 
	C317.574524,651.167847 306.003876,665.008118 307.427063,681.868225 
	C325.599426,681.868225 343.837402,681.868225 362.968323,681.812378 
z"/>
<path fill="#000000" opacity="1.000000" stroke="none" 
	d="
M578.068298,759.915222 
	C565.789307,746.767029 560.359741,730.948730 558.991516,713.873718 
	C557.577209,696.223511 558.285583,678.592651 564.976746,661.741760 
	C574.927307,636.682678 593.582397,622.766113 619.931519,618.789001 
	C635.340637,616.463135 650.610901,617.419983 665.152283,623.172058 
	C688.395325,632.366150 700.424072,650.439087 704.322510,674.571411 
	C706.115906,685.673157 704.974304,696.847961 705.343506,707.983948 
	C705.504211,712.833557 702.052368,712.135254 699.152100,712.138062 
	C669.827454,712.167053 640.502747,712.153015 611.178101,712.150696 
	C610.178406,712.150635 609.173462,712.212158 608.179871,712.133484 
	C604.155945,711.814758 602.925232,713.336609 603.724915,717.465393 
	C607.981018,739.439880 620.455383,749.760376 642.963318,749.885376 
	C659.540955,749.977417 675.338623,746.571106 690.500061,739.979248 
	C691.716736,739.450317 692.963684,738.977295 694.228943,738.582031 
	C694.662109,738.446655 695.194519,738.629272 696.286438,738.713013 
	C696.286438,749.168701 696.337891,759.613770 696.251770,770.057678 
	C696.229065,772.809509 693.640198,773.321167 691.750305,774.148315 
	C680.197449,779.204834 668.045593,781.846863 655.508728,782.811951 
	C639.812256,784.020203 624.228088,783.739319 609.002258,779.076721 
	C597.132812,775.441895 586.794067,769.311523 578.068298,759.915222 
M621.136108,652.479065 
	C611.345459,657.220764 607.117920,665.753113 605.216858,675.862793 
	C604.104553,681.777588 604.148682,681.871765 609.933655,681.882568 
	C625.925842,681.912354 641.918213,681.917786 657.910400,681.890320 
	C663.700378,681.880371 664.447449,680.859192 663.279663,674.958008 
	C659.168640,654.183716 642.104980,644.804565 621.136108,652.479065 
z"/>
<path fill="#000000" opacity="1.000000" stroke="none" 
	d="
M531.705566,357.402161 
	C539.132690,368.779755 542.062012,381.092773 542.309631,394.150238 
	C542.413879,399.645599 542.067444,405.163727 542.447632,410.635284 
	C542.780334,415.423584 540.800171,416.488739 536.384766,416.459381 
	C510.732574,416.288757 485.078644,416.370178 459.425323,416.368958 
	C450.879059,416.368561 450.879059,416.371979 452.526581,424.536377 
	C455.571320,439.624542 466.428925,448.899994 481.794434,449.879395 
	C497.902344,450.906128 513.271118,448.025208 528.086853,441.793762 
	C529.744080,441.096710 531.297607,439.992584 533.342285,440.214233 
	C534.838623,441.466248 534.297607,443.238617 534.313965,444.797577 
	C534.384094,451.460083 534.107239,458.136261 534.448914,464.782166 
	C534.656189,468.813049 533.056763,470.774200 529.491821,472.228577 
	C512.300293,479.242340 494.423950,480.982178 476.097076,479.606140 
	C461.006561,478.473083 446.964752,474.426178 435.035065,464.646637 
	C420.165070,452.456787 413.663055,436.014038 412.030487,417.492462 
	C410.600739,401.272339 411.767700,385.178406 418.256561,369.948120 
	C427.423950,348.430939 444.052795,336.852295 466.983887,333.569275 
	C476.682251,332.180695 486.190094,332.712524 495.748840,334.506714 
	C510.689362,337.311035 522.743225,344.566742 531.705566,357.402161 
M490.737061,363.573425 
	C469.640137,356.376526 453.322784,367.325836 453.005402,389.230042 
	C470.273132,389.230042 487.532806,389.230042 504.989471,389.230042 
	C504.944458,377.949493 501.297760,369.252991 490.737061,363.573425 
z"/>
<path fill="#000000" opacity="1.000000" stroke="none" 
	d="
M509.181580,747.697266 
	C517.213257,747.843506 524.536377,746.255859 531.709534,744.074402 
	C536.012634,742.765808 537.420837,743.982544 537.280579,748.400208 
	C537.042725,755.891724 537.080994,763.398804 537.254211,770.893494 
	C537.334717,774.379639 536.209473,776.380249 532.761963,777.577759 
	C514.535217,783.908691 495.994537,785.503113 477.233002,780.836670 
	C459.063171,776.317444 450.806519,763.039612 447.697205,745.640320 
	C446.814056,740.698364 446.638977,735.726318 446.648438,730.718567 
	C446.691895,707.722046 446.673645,684.725403 446.660156,661.728760 
	C446.655823,654.377808 446.631348,654.377808 439.569916,654.328552 
	C425.606445,654.231201 425.752869,654.229675 425.605927,640.335266 
	C425.564972,636.463074 426.863281,634.169006 430.168549,632.365662 
	C434.697113,629.894897 438.847717,626.691772 443.474518,624.451538 
	C448.400055,622.066589 450.915863,618.291504 452.576019,613.317200 
	C455.051788,605.899048 458.055115,598.658569 460.633911,591.272583 
	C461.720337,588.160889 463.420837,586.733459 466.839661,586.845459 
	C473.165344,587.052612 479.505127,587.017395 485.833954,586.868347 
	C489.640747,586.778748 491.307556,588.243286 491.191528,592.149414 
	C491.018463,597.976685 491.100494,603.813477 491.157623,609.645325 
	C491.279785,622.111633 489.877747,620.640625 502.009186,620.722107 
	C511.174133,620.783691 520.347656,620.972473 529.501831,620.656006 
	C534.237488,620.492310 535.562744,622.283813 535.397583,626.746155 
	C535.114197,634.401489 535.191406,642.076782 535.353088,649.738770 
	C535.427002,653.241638 534.037720,654.410950 530.637024,654.372925 
	C519.473389,654.248047 508.305969,654.436401 497.143280,654.275513 
	C492.982513,654.215515 491.096130,655.524658 491.118439,659.983459 
	C491.235229,683.312439 491.024048,706.643372 491.188049,729.971741 
	C491.270630,741.722229 496.878357,747.116943 509.181580,747.697266 
z"/>
<path fill="#000000" opacity="1.000000" stroke="none" 
	d="
M971.941528,745.820984 
	C976.124817,745.536865 979.504517,742.954163 984.179993,743.926392 
	C984.179993,753.848816 984.192566,763.780151 984.169556,773.711426 
	C984.164856,775.744019 982.647034,776.591553 981.034851,777.142822 
	C960.700317,784.095093 940.043030,786.552673 919.418213,779.143372 
	C903.283936,773.347351 896.856689,759.804016 894.731262,743.882263 
	C892.474915,726.980164 894.050659,709.958008 893.730164,692.992676 
	C893.519409,681.837219 893.571594,670.673096 893.735291,659.516174 
	C893.791687,655.670105 892.526733,654.018982 888.552002,654.272522 
	C884.736938,654.515869 880.891541,654.235168 877.063782,654.341614 
	C874.151489,654.422668 872.651733,653.276794 872.820068,650.267395 
	C872.829346,650.101440 872.822510,649.934143 872.814209,649.767883 
	C872.104614,635.547913 871.812866,634.992188 884.350769,628.411194 
	C893.700623,623.503540 899.717712,616.968506 902.194641,606.668335 
	C903.507507,601.209045 906.159973,596.081787 908.032349,590.743103 
	C909.005554,587.968079 910.700989,586.835449 913.618103,586.884766 
	C920.278442,586.997437 926.943176,586.995667 933.603760,586.890015 
	C937.060608,586.835205 938.306580,588.382324 938.255005,591.737610 
	C938.134583,599.563904 938.445496,607.402283 938.138000,615.218201 
	C937.960449,619.729126 939.675293,620.921265 943.947693,620.828003 
	C954.935120,620.588318 965.934082,620.897400 976.922974,620.693298 
	C981.020569,620.617249 982.539001,621.961182 982.396729,626.127441 
	C982.141113,633.613708 982.060608,641.128357 982.428528,648.605469 
	C982.666016,653.432495 980.701416,654.502747 976.318909,654.406189 
	C965.331482,654.164001 954.332520,654.462341 943.343567,654.257080 
	C939.417969,654.183716 938.133423,655.517578 938.157776,659.426270 
	C938.306274,683.242981 938.174500,707.061462 938.312927,730.878296 
	C938.373657,741.322021 944.257996,747.124207 954.719604,747.667542 
	C960.418335,747.963501 965.996460,747.169250 971.941528,745.820984 
z"/>
<path fill="#000000" opacity="1.000000" stroke="none" 
	d="
M775.465210,711.493896 
	C776.571228,717.148682 777.270935,722.415588 779.173157,727.444214 
	C783.858643,739.830627 792.856445,746.368042 806.002441,746.937195 
	C820.703491,747.573608 834.400085,744.317200 847.119141,736.884827 
	C848.771606,735.919250 850.236633,734.289917 852.438965,734.662720 
	C853.661377,735.771912 853.295532,737.186646 853.300476,738.455750 
	C853.337891,748.116455 853.239258,757.778381 853.369629,767.437439 
	C853.408264,770.295837 852.358826,772.000244 849.909058,773.430908 
	C840.518921,778.914612 830.347778,781.690979 819.609314,782.686218 
	C804.751343,784.063110 790.038757,783.704773 775.590515,779.395630 
	C756.507202,773.704224 743.382507,761.428772 736.746155,742.862610 
	C727.554382,717.147522 727.254456,690.902161 735.454590,664.935913 
	C744.155212,637.384766 764.512390,623.134277 792.226990,618.894714 
	C812.502441,615.793213 832.382385,618.222534 851.543518,625.761780 
	C858.647644,628.557007 858.628723,628.583984 855.878052,635.786255 
	C852.908997,643.560669 849.851685,651.303772 847.044617,659.136475 
	C845.875427,662.398926 844.327026,663.070923 841.069397,661.756836 
	C829.445007,657.067566 817.642395,653.169678 804.769226,654.134827 
	C794.030396,654.939880 786.238953,660.004028 781.309387,669.490967 
	C777.152954,677.489990 775.802795,686.202087 775.383240,695.055908 
	C775.131287,700.372253 775.389465,705.712769 775.465210,711.493896 
z"/>
<path fill="#000000" opacity="1.000000" stroke="none" 
	d="
M308.388580,377.764801 
	C315.123413,398.294067 323.537201,417.909668 326.912079,439.164764 
	C331.239868,415.464752 340.691559,393.399292 347.914642,370.649292 
	C351.188416,360.338196 354.971741,350.189453 358.289795,339.891571 
	C359.338989,336.635345 361.036255,335.504761 364.422852,335.554871 
	C376.210510,335.729340 388.002350,335.622314 399.587463,335.622314 
	C400.803406,338.338257 399.434326,340.088318 398.763123,341.851685 
	C382.176819,385.427368 365.499908,428.968658 348.968353,472.565063 
	C347.649261,476.043823 345.903381,477.510986 342.078766,477.419006 
	C332.084991,477.178650 322.075195,477.128143 312.085236,477.437256 
	C307.972260,477.564514 306.213379,475.907928 304.852478,472.307678 
	C290.484863,434.297699 275.984985,396.337708 261.527679,358.361603 
	C258.762451,351.097961 256.023712,343.824188 252.926941,335.641296 
	C260.281006,335.641296 266.702637,335.643036 273.124268,335.640747 
	C278.623993,335.638763 284.131653,335.808838 289.620605,335.563171 
	C293.074890,335.408600 294.662628,336.810516 295.701294,339.999878 
	C299.772888,352.502075 304.066742,364.931885 308.388580,377.764801 
z"/>
<path fill="#000000" opacity="1.000000" stroke="none" 
	d="
M91.353867,418.000122 
	C91.352966,424.995300 91.622681,431.505676 91.259155,437.980530 
	C90.999435,442.606476 92.595932,444.035553 97.173149,443.993347 
	C117.656158,443.804474 138.141937,443.908813 158.626724,443.923004 
	C166.313248,443.928345 166.321442,443.947784 166.332596,451.625122 
	C166.342758,458.619904 166.231934,465.616791 166.375259,472.608582 
	C166.443069,475.917084 165.436630,477.396820 161.844330,477.387878 
	C126.704018,477.300568 91.563278,477.301422 56.423004,477.399475 
	C52.670025,477.409943 51.563244,475.963928 51.567245,472.380249 
	C51.632553,413.923767 51.632217,355.467133 51.543034,297.010681 
	C51.537090,293.114685 52.893772,291.691376 56.772232,291.765045 
	C66.261932,291.945343 75.764259,292.063293 85.247009,291.757355 
	C90.123894,291.600037 91.456947,293.360443 91.438538,298.089172 
	C91.283508,337.892303 91.352180,377.696350 91.353867,418.000122 
z"/>
<path fill="#000000" opacity="1.000000" stroke="none" 
	d="
M234.015396,367.000000 
	C234.022247,401.810944 234.036560,436.121918 234.028763,470.432861 
	C234.027191,477.309753 233.988434,477.324554 227.063858,477.335205 
	C217.736633,477.349548 208.407944,477.245239 199.082870,477.387543 
	C195.721115,477.438843 194.473206,476.465302 194.484100,472.838409 
	C194.615753,429.034149 194.645279,385.229187 194.499512,341.425079 
	C194.483963,336.753204 196.029175,335.420563 200.521805,335.553040 
	C210.007248,335.832794 219.509262,335.754547 228.999451,335.567169 
	C232.705276,335.494019 234.073074,336.933472 234.032364,340.517883 
	C233.934021,349.177521 234.009598,357.839172 234.015396,367.000000 
z"/>
<path fill="#000000" opacity="1.000000" stroke="none" 
	d="
M204.740677,317.660583 
	C195.485916,313.864777 191.524384,306.539703 192.847015,296.205322 
	C193.999969,287.196777 199.113617,282.216797 208.369629,280.595062 
	C212.902161,279.800903 217.325592,280.001404 221.730652,280.979462 
	C231.424164,283.131653 235.750153,289.786011 235.335754,301.660553 
	C235.027527,310.493439 229.233017,316.861084 220.409622,318.346497 
	C215.244339,319.216034 210.164703,319.357880 204.740677,317.660583 
z"/>
<path fill="#000000" opacity="1.000000" stroke="none" 
	d="
M642.363159,258.637634 
	C646.763977,263.617981 652.087646,267.317566 655.230774,272.921112 
	C657.915955,277.708344 657.147583,281.957916 653.246338,285.396759 
	C648.774658,289.338440 643.192139,290.068207 639.218018,286.329803 
	C630.871277,278.478302 622.745117,270.373169 614.862976,262.055115 
	C610.844727,257.814606 611.297607,251.616501 615.103943,247.570435 
	C619.118469,243.303101 625.242432,242.682266 629.916687,246.631470 
	C634.220825,250.267883 638.066528,254.446701 642.363159,258.637634 
z"/>
<path fill="#000000" opacity="1.000000" stroke="none" 
	d="
M643.952026,493.950958 
	C639.457947,498.422760 635.291504,502.726440 630.945862,506.840881 
	C626.220520,511.314819 620.145020,511.399323 615.720886,507.272705 
	C611.178772,503.036011 610.721436,496.344330 615.212891,491.676697 
	C622.817566,483.773682 630.622131,476.052277 638.575745,468.500031 
	C642.906189,464.388092 648.825012,464.826752 653.403137,469.000305 
	C657.518372,472.751892 657.970520,477.164124 654.656433,482.358856 
	C651.852600,486.753723 647.627441,489.864075 643.952026,493.950958 
z"/>
<path fill="#000000" opacity="1.000000" stroke="none" 
	d="
M992.082092,269.968689 
	C985.354492,276.704651 978.938538,283.237732 972.387573,289.632355 
	C966.414734,295.462646 959.960693,295.888977 955.310791,290.967621 
	C950.681580,286.068176 951.217590,279.953308 956.886047,274.228210 
	C963.446777,267.601868 970.021423,260.987732 976.686523,254.466965 
	C982.456665,248.821915 988.577881,248.462646 993.413452,253.290253 
	C997.818298,257.687775 997.403137,264.005646 992.082092,269.968689 
z"/>
<path fill="#000000" opacity="1.000000" stroke="none" 
	d="
M989.963562,482.057861 
	C992.941345,485.178528 996.129761,487.680908 996.469788,492.151733 
	C996.818237,496.734253 995.380371,500.385132 991.407104,502.741394 
	C987.280090,505.188812 982.846069,505.211456 979.312866,502.007751 
	C970.693665,494.192230 962.283325,486.121460 954.591614,477.376587 
	C951.043091,473.342010 951.601440,467.135345 955.295715,463.267334 
	C959.367188,459.004395 964.761536,458.251099 969.602539,462.447968 
	C976.623230,468.534454 983.038757,475.318909 989.963562,482.057861 
z"/>
<path fill="#000000" opacity="1.000000" stroke="none" 
	d="
M794.659302,536.027344 
	C794.662109,533.372803 794.627136,531.211975 794.675354,529.052979 
	C794.835876,521.865295 798.941650,517.634644 805.678284,517.675415 
	C812.107666,517.714417 816.244751,521.963562 816.305298,528.859497 
	C816.394348,538.994202 816.404114,549.130676 816.322083,559.265381 
	C816.266479,566.135742 811.606995,570.989441 805.366028,570.945618 
	C799.512878,570.904480 794.783752,565.931213 794.690430,559.450867 
	C794.580322,551.809326 794.661377,544.164978 794.659302,536.027344 
z"/>
<path fill="#000000" opacity="1.000000" stroke="none" 
	d="
M794.656982,202.027267 
	C794.661438,199.207413 794.609497,196.880295 794.682922,194.557144 
	C794.889954,188.002945 798.973450,183.785980 805.141724,183.688950 
	C811.786438,183.584427 816.185120,187.617508 816.278748,194.334457 
	C816.424561,204.796356 816.417542,215.262787 816.293396,225.725128 
	C816.216675,232.188095 811.466064,236.876144 805.336853,236.933365 
	C799.540771,236.987457 794.787903,231.967667 794.695862,225.442459 
	C794.588074,217.803589 794.662476,210.162140 794.656982,202.027267 
z"/>
</svg>